<mxfile host="app.diagrams.net" agent="Mozilla/5.0 (Windows NT 10.0; Win64; x64) AppleWebKit/537.36 (KHTML, like Gecko) Chrome/130.0.0.0 Safari/537.36" version="24.8.6">
  <diagram name="Page-1" id="bd83a815-5ea8-2e97-e5ec-87c9f400f2fa">
    <mxGraphModel dx="1615" dy="925" grid="1" gridSize="10" guides="1" tooltips="1" connect="1" arrows="1" fold="1" page="1" pageScale="1.5" pageWidth="1169" pageHeight="826" background="none" math="0" shadow="0">
      <root>
        <mxCell id="0" style=";html=1;" />
        <mxCell id="1" style=";html=1;" parent="0" />
        <mxCell id="1516e18e63f93b96-4" value="" style="whiteSpace=wrap;html=1;rounded=1;shadow=0;strokeWidth=1;fontSize=14;sketch=1;curveFitting=1;jiggle=2;" parent="1" vertex="1">
          <mxGeometry x="1400" y="1140" width="60" height="50" as="geometry" />
        </mxCell>
        <mxCell id="1516e18e63f93b96-5" value="Relation 8" style="whiteSpace=wrap;html=1;rounded=1;shadow=0;strokeWidth=1;fontSize=14;sketch=1;curveFitting=1;jiggle=2;" parent="1" vertex="1">
          <mxGeometry x="1460" y="1140" width="210" height="50" as="geometry" />
        </mxCell>
        <mxCell id="1516e18e63f93b96-12" value="" style="rhombus;whiteSpace=wrap;html=1;rounded=1;shadow=0;strokeWidth=3;fillColor=#000000;fontSize=14;sketch=1;curveFitting=1;jiggle=2;" parent="1" vertex="1">
          <mxGeometry x="1415" y="1150" width="30" height="30" as="geometry" />
        </mxCell>
        <mxCell id="1516e18e63f93b96-14" value="" style="whiteSpace=wrap;html=1;rounded=1;shadow=0;strokeWidth=1;fontSize=14;sketch=1;curveFitting=1;jiggle=2;" parent="1" vertex="1">
          <mxGeometry x="1400" y="1090" width="60" height="50" as="geometry" />
        </mxCell>
        <mxCell id="1516e18e63f93b96-15" value="Relation 7" style="whiteSpace=wrap;html=1;rounded=1;shadow=0;strokeWidth=1;fontSize=14;sketch=1;curveFitting=1;jiggle=2;" parent="1" vertex="1">
          <mxGeometry x="1460" y="1090" width="210" height="50" as="geometry" />
        </mxCell>
        <mxCell id="1516e18e63f93b96-18" value="" style="whiteSpace=wrap;html=1;rounded=1;shadow=0;strokeWidth=1;fontSize=14;sketch=1;curveFitting=1;jiggle=2;" parent="1" vertex="1">
          <mxGeometry x="1400" y="1040" width="60" height="50" as="geometry" />
        </mxCell>
        <mxCell id="1516e18e63f93b96-19" value="Relation 6" style="whiteSpace=wrap;html=1;rounded=1;shadow=0;strokeWidth=1;fontSize=14;sketch=1;curveFitting=1;jiggle=2;" parent="1" vertex="1">
          <mxGeometry x="1460" y="1040" width="210" height="50" as="geometry" />
        </mxCell>
        <mxCell id="1516e18e63f93b96-20" value="" style="whiteSpace=wrap;html=1;rounded=1;shadow=0;strokeWidth=1;fontSize=14;sketch=1;curveFitting=1;jiggle=2;" parent="1" vertex="1">
          <mxGeometry x="1400" y="990" width="60" height="50" as="geometry" />
        </mxCell>
        <mxCell id="1516e18e63f93b96-21" value="Relation 5" style="whiteSpace=wrap;html=1;rounded=1;shadow=0;strokeWidth=1;fontSize=14;sketch=1;curveFitting=1;jiggle=2;" parent="1" vertex="1">
          <mxGeometry x="1460" y="990" width="210" height="50" as="geometry" />
        </mxCell>
        <mxCell id="1516e18e63f93b96-22" value="" style="whiteSpace=wrap;html=1;rounded=1;shadow=0;strokeWidth=1;fontSize=14;sketch=1;curveFitting=1;jiggle=2;" parent="1" vertex="1">
          <mxGeometry x="1400" y="940" width="60" height="50" as="geometry" />
        </mxCell>
        <mxCell id="1516e18e63f93b96-23" value="Relation 4" style="whiteSpace=wrap;html=1;rounded=1;shadow=0;strokeWidth=1;fontSize=14;sketch=1;curveFitting=1;jiggle=2;" parent="1" vertex="1">
          <mxGeometry x="1460" y="940" width="210" height="50" as="geometry" />
        </mxCell>
        <mxCell id="1516e18e63f93b96-24" value="" style="whiteSpace=wrap;html=1;rounded=1;shadow=0;strokeWidth=1;fontSize=14;sketch=1;curveFitting=1;jiggle=2;" parent="1" vertex="1">
          <mxGeometry x="1400" y="890" width="60" height="50" as="geometry" />
        </mxCell>
        <mxCell id="1516e18e63f93b96-25" value="Relation 3" style="whiteSpace=wrap;html=1;rounded=1;shadow=0;strokeWidth=1;fontSize=14;sketch=1;curveFitting=1;jiggle=2;" parent="1" vertex="1">
          <mxGeometry x="1460" y="890" width="210" height="50" as="geometry" />
        </mxCell>
        <mxCell id="1516e18e63f93b96-26" value="" style="whiteSpace=wrap;html=1;rounded=1;shadow=0;strokeWidth=1;fontSize=14;sketch=1;curveFitting=1;jiggle=2;" parent="1" vertex="1">
          <mxGeometry x="1400" y="840" width="60" height="50" as="geometry" />
        </mxCell>
        <mxCell id="1516e18e63f93b96-27" value="Relation 2" style="whiteSpace=wrap;html=1;rounded=1;shadow=0;strokeWidth=1;fontSize=14;sketch=1;curveFitting=1;jiggle=2;" parent="1" vertex="1">
          <mxGeometry x="1460" y="840" width="210" height="50" as="geometry" />
        </mxCell>
        <mxCell id="1516e18e63f93b96-28" value="" style="whiteSpace=wrap;html=1;rounded=1;shadow=0;strokeWidth=1;fontSize=14;sketch=1;curveFitting=1;jiggle=2;" parent="1" vertex="1">
          <mxGeometry x="1400" y="790" width="60" height="50" as="geometry" />
        </mxCell>
        <mxCell id="1516e18e63f93b96-29" value="Relation 1" style="whiteSpace=wrap;html=1;rounded=1;shadow=0;strokeWidth=1;fontSize=14;sketch=1;curveFitting=1;jiggle=2;" parent="1" vertex="1">
          <mxGeometry x="1460" y="790" width="210" height="50" as="geometry" />
        </mxCell>
        <mxCell id="1516e18e63f93b96-3" value="Title" style="text;strokeColor=none;fillColor=none;html=1;fontSize=24;fontStyle=1;verticalAlign=middle;align=center;rounded=1;shadow=1;sketch=1;curveFitting=1;jiggle=2;" parent="1" vertex="1">
          <mxGeometry x="300" y="70" width="780" height="40" as="geometry" />
        </mxCell>
        <mxCell id="1516e18e63f93b96-6" value="" style="ellipse;whiteSpace=wrap;html=1;rounded=1;shadow=0;strokeWidth=3;fontSize=14;sketch=1;curveFitting=1;jiggle=2;" parent="1" vertex="1">
          <mxGeometry x="1415" y="800" width="30" height="30" as="geometry" />
        </mxCell>
        <mxCell id="1516e18e63f93b96-7" value="" style="ellipse;whiteSpace=wrap;html=1;rounded=1;shadow=0;strokeWidth=3;fontSize=14;fillColor=#000000;sketch=1;curveFitting=1;jiggle=2;" parent="1" vertex="1">
          <mxGeometry x="1415" y="850" width="30" height="30" as="geometry" />
        </mxCell>
        <mxCell id="1516e18e63f93b96-8" value="" style="triangle;whiteSpace=wrap;html=1;rounded=1;shadow=0;strokeWidth=3;fillColor=#000000;fontSize=14;direction=north;sketch=1;curveFitting=1;jiggle=2;" parent="1" vertex="1">
          <mxGeometry x="1415" y="950" width="30" height="30" as="geometry" />
        </mxCell>
        <mxCell id="1516e18e63f93b96-9" value="" style="triangle;whiteSpace=wrap;html=1;rounded=1;shadow=0;strokeWidth=3;fontSize=14;direction=north;sketch=1;curveFitting=1;jiggle=2;" parent="1" vertex="1">
          <mxGeometry x="1415" y="900" width="30" height="30" as="geometry" />
        </mxCell>
        <mxCell id="1516e18e63f93b96-10" value="" style="whiteSpace=wrap;html=1;rounded=1;shadow=0;strokeWidth=3;fontSize=14;sketch=1;curveFitting=1;jiggle=2;" parent="1" vertex="1">
          <mxGeometry x="1415" y="1000" width="30" height="30" as="geometry" />
        </mxCell>
        <mxCell id="1516e18e63f93b96-11" value="" style="whiteSpace=wrap;html=1;rounded=1;shadow=0;strokeWidth=3;fillColor=#000000;fontSize=14;sketch=1;curveFitting=1;jiggle=2;" parent="1" vertex="1">
          <mxGeometry x="1415" y="1050" width="30" height="30" as="geometry" />
        </mxCell>
        <mxCell id="1516e18e63f93b96-13" value="" style="rhombus;whiteSpace=wrap;html=1;rounded=1;shadow=0;strokeWidth=3;fontSize=14;sketch=1;curveFitting=1;jiggle=2;" parent="1" vertex="1">
          <mxGeometry x="1415" y="1100" width="30" height="30" as="geometry" />
        </mxCell>
        <mxCell id="jeh_nIhjsLaDO_0bEj_C-45" value="" style="shape=table;startSize=0;container=1;collapsible=0;childLayout=tableLayout;rounded=1;sketch=1;curveFitting=1;jiggle=2;" vertex="1" parent="1">
          <mxGeometry x="100" y="280" width="1220" height="770" as="geometry" />
        </mxCell>
        <mxCell id="jeh_nIhjsLaDO_0bEj_C-46" value="" style="shape=tableRow;horizontal=0;startSize=0;swimlaneHead=0;swimlaneBody=0;strokeColor=inherit;top=0;left=0;bottom=0;right=0;collapsible=0;dropTarget=0;fillColor=none;points=[[0,0.5],[1,0.5]];portConstraint=eastwest;fontStyle=0;fontSize=17;rounded=1;sketch=1;curveFitting=1;jiggle=2;labelBackgroundColor=default;" vertex="1" parent="jeh_nIhjsLaDO_0bEj_C-45">
          <mxGeometry width="1220" height="111" as="geometry" />
        </mxCell>
        <mxCell id="jeh_nIhjsLaDO_0bEj_C-47" value="&lt;font style=&quot;&quot;&gt;&lt;strong style=&quot;forced-color-adjust: none; color: rgb(0, 0, 0); font-family: Helvetica; font-style: normal; font-variant-ligatures: normal; font-variant-caps: normal; letter-spacing: normal; orphans: 2; text-align: left; text-indent: 0px; text-transform: none; widows: 2; word-spacing: 0px; -webkit-text-stroke-width: 0px; white-space: normal; text-decoration-thickness: initial; text-decoration-style: initial; text-decoration-color: initial;&quot;&gt;&lt;font style=&quot;font-size: 20px;&quot;&gt;Criteria&lt;/font&gt;&lt;/strong&gt;&lt;br style=&quot;font-size: 17px;&quot;&gt;&lt;/font&gt;" style="shape=partialRectangle;html=1;whiteSpace=wrap;connectable=0;strokeColor=inherit;overflow=hidden;fillColor=none;top=0;left=0;bottom=0;right=0;pointerEvents=1;fontStyle=0;fontSize=17;rounded=1;sketch=1;curveFitting=1;jiggle=2;labelBackgroundColor=default;" vertex="1" parent="jeh_nIhjsLaDO_0bEj_C-46">
          <mxGeometry width="204" height="111" as="geometry">
            <mxRectangle width="204" height="111" as="alternateBounds" />
          </mxGeometry>
        </mxCell>
        <mxCell id="jeh_nIhjsLaDO_0bEj_C-48" value="&lt;strong style=&quot;text-align: left;&quot;&gt;&lt;font style=&quot;font-size: 20px;&quot;&gt;ADF&lt;/font&gt;&lt;/strong&gt;" style="shape=partialRectangle;html=1;whiteSpace=wrap;connectable=0;strokeColor=inherit;overflow=hidden;fillColor=none;top=0;left=0;bottom=0;right=0;pointerEvents=1;fontStyle=0;fontSize=17;rounded=1;sketch=1;curveFitting=1;jiggle=2;labelBackgroundColor=default;" vertex="1" parent="jeh_nIhjsLaDO_0bEj_C-46">
          <mxGeometry x="204" width="202" height="111" as="geometry">
            <mxRectangle width="202" height="111" as="alternateBounds" />
          </mxGeometry>
        </mxCell>
        <mxCell id="jeh_nIhjsLaDO_0bEj_C-49" value="&lt;strong style=&quot;text-align: left;&quot;&gt;&lt;font style=&quot;font-size: 20px;&quot;&gt;SSIS&lt;/font&gt;&lt;/strong&gt;" style="shape=partialRectangle;html=1;whiteSpace=wrap;connectable=0;strokeColor=inherit;overflow=hidden;fillColor=none;top=0;left=0;bottom=0;right=0;pointerEvents=1;fontStyle=0;fontSize=17;rounded=1;sketch=1;curveFitting=1;jiggle=2;labelBackgroundColor=default;" vertex="1" parent="jeh_nIhjsLaDO_0bEj_C-46">
          <mxGeometry x="406" width="204" height="111" as="geometry">
            <mxRectangle width="204" height="111" as="alternateBounds" />
          </mxGeometry>
        </mxCell>
        <mxCell id="jeh_nIhjsLaDO_0bEj_C-50" value="&lt;strong style=&quot;text-align: left;&quot;&gt;&lt;font style=&quot;font-size: 20px;&quot;&gt;Python Scripts&lt;/font&gt;&lt;/strong&gt;" style="shape=partialRectangle;html=1;whiteSpace=wrap;connectable=0;strokeColor=inherit;overflow=hidden;fillColor=none;top=0;left=0;bottom=0;right=0;pointerEvents=1;fontStyle=0;fontSize=17;rounded=1;sketch=1;curveFitting=1;jiggle=2;labelBackgroundColor=default;" vertex="1" parent="jeh_nIhjsLaDO_0bEj_C-46">
          <mxGeometry x="610" width="204" height="111" as="geometry">
            <mxRectangle width="204" height="111" as="alternateBounds" />
          </mxGeometry>
        </mxCell>
        <mxCell id="jeh_nIhjsLaDO_0bEj_C-51" value="&lt;strong style=&quot;text-align: left;&quot;&gt;&lt;font style=&quot;font-size: 20px;&quot;&gt;NiFi&lt;/font&gt;&lt;/strong&gt;" style="shape=partialRectangle;html=1;whiteSpace=wrap;connectable=0;strokeColor=inherit;overflow=hidden;fillColor=none;top=0;left=0;bottom=0;right=0;pointerEvents=1;fontStyle=0;fontSize=17;rounded=1;sketch=1;curveFitting=1;jiggle=2;labelBackgroundColor=default;" vertex="1" parent="jeh_nIhjsLaDO_0bEj_C-46">
          <mxGeometry x="814" width="202" height="111" as="geometry">
            <mxRectangle width="202" height="111" as="alternateBounds" />
          </mxGeometry>
        </mxCell>
        <mxCell id="jeh_nIhjsLaDO_0bEj_C-52" value="&lt;strong style=&quot;text-align: left;&quot;&gt;&lt;font style=&quot;font-size: 20px;&quot;&gt;Custom .NET Code&lt;/font&gt;&lt;/strong&gt;" style="shape=partialRectangle;html=1;whiteSpace=wrap;connectable=0;strokeColor=inherit;overflow=hidden;fillColor=none;top=0;left=0;bottom=0;right=0;pointerEvents=1;fontStyle=0;fontSize=17;rounded=1;sketch=1;curveFitting=1;jiggle=2;labelBackgroundColor=default;" vertex="1" parent="jeh_nIhjsLaDO_0bEj_C-46">
          <mxGeometry x="1016" width="204" height="111" as="geometry">
            <mxRectangle width="204" height="111" as="alternateBounds" />
          </mxGeometry>
        </mxCell>
        <mxCell id="jeh_nIhjsLaDO_0bEj_C-53" value="" style="shape=tableRow;horizontal=0;startSize=0;swimlaneHead=0;swimlaneBody=0;strokeColor=inherit;top=0;left=0;bottom=0;right=0;collapsible=0;dropTarget=0;fillColor=none;points=[[0,0.5],[1,0.5]];portConstraint=eastwest;fontStyle=0;fontSize=17;rounded=1;sketch=1;curveFitting=1;jiggle=2;labelBackgroundColor=default;" vertex="1" parent="jeh_nIhjsLaDO_0bEj_C-45">
          <mxGeometry y="111" width="1220" height="108" as="geometry" />
        </mxCell>
        <mxCell id="jeh_nIhjsLaDO_0bEj_C-54" value="&lt;strong style=&quot;text-align: left;&quot;&gt;&lt;font style=&quot;font-size: 20px;&quot;&gt;Ease of Use&lt;/font&gt;&lt;/strong&gt;" style="shape=partialRectangle;html=1;whiteSpace=wrap;connectable=0;strokeColor=inherit;overflow=hidden;fillColor=none;top=0;left=0;bottom=0;right=0;pointerEvents=1;fontStyle=0;fontSize=17;rounded=1;sketch=1;curveFitting=1;jiggle=2;labelBackgroundColor=default;" vertex="1" parent="jeh_nIhjsLaDO_0bEj_C-53">
          <mxGeometry width="204" height="108" as="geometry">
            <mxRectangle width="204" height="108" as="alternateBounds" />
          </mxGeometry>
        </mxCell>
        <mxCell id="jeh_nIhjsLaDO_0bEj_C-55" value="&lt;span style=&quot;font-size: 17px; text-align: left;&quot;&gt;Easy&lt;/span&gt;" style="shape=partialRectangle;html=1;whiteSpace=wrap;connectable=0;strokeColor=inherit;overflow=hidden;fillColor=none;top=0;left=0;bottom=0;right=0;pointerEvents=1;fontStyle=0;fontSize=17;rounded=1;sketch=1;curveFitting=1;jiggle=2;labelBackgroundColor=default;" vertex="1" parent="jeh_nIhjsLaDO_0bEj_C-53">
          <mxGeometry x="204" width="202" height="108" as="geometry">
            <mxRectangle width="202" height="108" as="alternateBounds" />
          </mxGeometry>
        </mxCell>
        <mxCell id="jeh_nIhjsLaDO_0bEj_C-56" value="&lt;span style=&quot;font-size: 17px; text-align: left;&quot;&gt;Moderate&lt;/span&gt;" style="shape=partialRectangle;html=1;whiteSpace=wrap;connectable=0;strokeColor=inherit;overflow=hidden;fillColor=none;top=0;left=0;bottom=0;right=0;pointerEvents=1;fontStyle=0;fontSize=17;rounded=1;sketch=1;curveFitting=1;jiggle=2;labelBackgroundColor=default;" vertex="1" parent="jeh_nIhjsLaDO_0bEj_C-53">
          <mxGeometry x="406" width="204" height="108" as="geometry">
            <mxRectangle width="204" height="108" as="alternateBounds" />
          </mxGeometry>
        </mxCell>
        <mxCell id="jeh_nIhjsLaDO_0bEj_C-57" value="&lt;span style=&quot;font-size: 17px; text-align: left;&quot;&gt;Requires expertise&lt;/span&gt;" style="shape=partialRectangle;html=1;whiteSpace=wrap;connectable=0;strokeColor=inherit;overflow=hidden;fillColor=none;top=0;left=0;bottom=0;right=0;pointerEvents=1;fontStyle=0;fontSize=17;rounded=1;sketch=1;curveFitting=1;jiggle=2;labelBackgroundColor=default;" vertex="1" parent="jeh_nIhjsLaDO_0bEj_C-53">
          <mxGeometry x="610" width="204" height="108" as="geometry">
            <mxRectangle width="204" height="108" as="alternateBounds" />
          </mxGeometry>
        </mxCell>
        <mxCell id="jeh_nIhjsLaDO_0bEj_C-58" value="&lt;div style=&quot;font-size: 17px;&quot;&gt;&lt;br style=&quot;font-size: 17px;&quot;&gt;&lt;/div&gt;&lt;div style=&quot;font-size: 17px;&quot;&gt;&lt;table style=&quot;text-align: left; font-size: 17px;&quot;&gt;&lt;tbody style=&quot;font-size: 17px;&quot;&gt;&lt;tr style=&quot;font-size: 17px;&quot;&gt;&lt;td style=&quot;font-size: 17px;&quot;&gt;&lt;font style=&quot;font-size: 17px;&quot;&gt;Moderate&lt;/font&gt;&lt;/td&gt;&lt;/tr&gt;&lt;/tbody&gt;&lt;/table&gt;&lt;/div&gt;" style="shape=partialRectangle;html=1;whiteSpace=wrap;connectable=0;strokeColor=inherit;overflow=hidden;fillColor=none;top=0;left=0;bottom=0;right=0;pointerEvents=1;fontStyle=0;fontSize=17;rounded=1;sketch=1;curveFitting=1;jiggle=2;labelBackgroundColor=default;" vertex="1" parent="jeh_nIhjsLaDO_0bEj_C-53">
          <mxGeometry x="814" width="202" height="108" as="geometry">
            <mxRectangle width="202" height="108" as="alternateBounds" />
          </mxGeometry>
        </mxCell>
        <mxCell id="jeh_nIhjsLaDO_0bEj_C-59" value="&lt;span style=&quot;font-size: 17px; text-align: left;&quot;&gt;Requires expertise&lt;/span&gt;" style="shape=partialRectangle;html=1;whiteSpace=wrap;connectable=0;strokeColor=inherit;overflow=hidden;fillColor=none;top=0;left=0;bottom=0;right=0;pointerEvents=1;fontStyle=0;fontSize=17;rounded=1;sketch=1;curveFitting=1;jiggle=2;labelBackgroundColor=default;" vertex="1" parent="jeh_nIhjsLaDO_0bEj_C-53">
          <mxGeometry x="1016" width="204" height="108" as="geometry">
            <mxRectangle width="204" height="108" as="alternateBounds" />
          </mxGeometry>
        </mxCell>
        <mxCell id="jeh_nIhjsLaDO_0bEj_C-60" value="" style="shape=tableRow;horizontal=0;startSize=0;swimlaneHead=0;swimlaneBody=0;strokeColor=inherit;top=0;left=0;bottom=0;right=0;collapsible=0;dropTarget=0;fillColor=none;points=[[0,0.5],[1,0.5]];portConstraint=eastwest;fontStyle=0;fontSize=17;rounded=1;sketch=1;curveFitting=1;jiggle=2;labelBackgroundColor=default;" vertex="1" parent="jeh_nIhjsLaDO_0bEj_C-45">
          <mxGeometry y="219" width="1220" height="113" as="geometry" />
        </mxCell>
        <mxCell id="jeh_nIhjsLaDO_0bEj_C-61" value="&lt;strong style=&quot;font-size: 20px; text-align: left;&quot;&gt;Cost&lt;/strong&gt;" style="shape=partialRectangle;html=1;whiteSpace=wrap;connectable=0;strokeColor=inherit;overflow=hidden;fillColor=none;top=0;left=0;bottom=0;right=0;pointerEvents=1;fontStyle=0;fontSize=17;rounded=1;sketch=1;curveFitting=1;jiggle=2;labelBackgroundColor=default;" vertex="1" parent="jeh_nIhjsLaDO_0bEj_C-60">
          <mxGeometry width="204" height="113" as="geometry">
            <mxRectangle width="204" height="113" as="alternateBounds" />
          </mxGeometry>
        </mxCell>
        <mxCell id="jeh_nIhjsLaDO_0bEj_C-62" value="&lt;span style=&quot;font-size: 17px; text-align: left;&quot;&gt;Pay-per-use&lt;/span&gt;" style="shape=partialRectangle;html=1;whiteSpace=wrap;connectable=0;strokeColor=inherit;overflow=hidden;fillColor=none;top=0;left=0;bottom=0;right=0;pointerEvents=1;fontStyle=0;fontSize=17;rounded=1;sketch=1;curveFitting=1;jiggle=2;labelBackgroundColor=default;" vertex="1" parent="jeh_nIhjsLaDO_0bEj_C-60">
          <mxGeometry x="204" width="202" height="113" as="geometry">
            <mxRectangle width="202" height="113" as="alternateBounds" />
          </mxGeometry>
        </mxCell>
        <mxCell id="jeh_nIhjsLaDO_0bEj_C-63" value="&lt;span style=&quot;font-size: 17px; text-align: left;&quot;&gt;Licensing + IR costs&lt;/span&gt;" style="shape=partialRectangle;html=1;whiteSpace=wrap;connectable=0;strokeColor=inherit;overflow=hidden;fillColor=none;top=0;left=0;bottom=0;right=0;pointerEvents=1;fontStyle=0;fontSize=17;rounded=1;sketch=1;curveFitting=1;jiggle=2;labelBackgroundColor=default;" vertex="1" parent="jeh_nIhjsLaDO_0bEj_C-60">
          <mxGeometry x="406" width="204" height="113" as="geometry">
            <mxRectangle width="204" height="113" as="alternateBounds" />
          </mxGeometry>
        </mxCell>
        <mxCell id="jeh_nIhjsLaDO_0bEj_C-64" value="&lt;span style=&quot;font-size: 17px; text-align: left;&quot;&gt;Low&lt;/span&gt;" style="shape=partialRectangle;html=1;whiteSpace=wrap;connectable=0;strokeColor=inherit;overflow=hidden;fillColor=none;top=0;left=0;bottom=0;right=0;pointerEvents=1;fontStyle=0;fontSize=17;rounded=1;sketch=1;curveFitting=1;jiggle=2;labelBackgroundColor=default;" vertex="1" parent="jeh_nIhjsLaDO_0bEj_C-60">
          <mxGeometry x="610" width="204" height="113" as="geometry">
            <mxRectangle width="204" height="113" as="alternateBounds" />
          </mxGeometry>
        </mxCell>
        <mxCell id="jeh_nIhjsLaDO_0bEj_C-65" value="&lt;span style=&quot;font-size: 17px; text-align: left;&quot;&gt;Free (Open Source)&lt;/span&gt;" style="shape=partialRectangle;html=1;whiteSpace=wrap;connectable=0;strokeColor=inherit;overflow=hidden;fillColor=none;top=0;left=0;bottom=0;right=0;pointerEvents=1;fontStyle=0;fontSize=17;rounded=1;sketch=1;curveFitting=1;jiggle=2;labelBackgroundColor=default;" vertex="1" parent="jeh_nIhjsLaDO_0bEj_C-60">
          <mxGeometry x="814" width="202" height="113" as="geometry">
            <mxRectangle width="202" height="113" as="alternateBounds" />
          </mxGeometry>
        </mxCell>
        <mxCell id="jeh_nIhjsLaDO_0bEj_C-66" value="&lt;span style=&quot;font-size: 17px; text-align: left;&quot;&gt;Low (existing resources)&lt;/span&gt;" style="shape=partialRectangle;html=1;whiteSpace=wrap;connectable=0;strokeColor=inherit;overflow=hidden;fillColor=none;top=0;left=0;bottom=0;right=0;pointerEvents=1;fontStyle=0;fontSize=17;rounded=1;sketch=1;curveFitting=1;jiggle=2;labelBackgroundColor=default;" vertex="1" parent="jeh_nIhjsLaDO_0bEj_C-60">
          <mxGeometry x="1016" width="204" height="113" as="geometry">
            <mxRectangle width="204" height="113" as="alternateBounds" />
          </mxGeometry>
        </mxCell>
        <mxCell id="jeh_nIhjsLaDO_0bEj_C-67" value="" style="shape=tableRow;horizontal=0;startSize=0;swimlaneHead=0;swimlaneBody=0;strokeColor=inherit;top=0;left=0;bottom=0;right=0;collapsible=0;dropTarget=0;fillColor=none;points=[[0,0.5],[1,0.5]];portConstraint=eastwest;fontStyle=0;fontSize=17;rounded=1;sketch=1;curveFitting=1;jiggle=2;labelBackgroundColor=default;" vertex="1" parent="jeh_nIhjsLaDO_0bEj_C-45">
          <mxGeometry y="332" width="1220" height="106" as="geometry" />
        </mxCell>
        <mxCell id="jeh_nIhjsLaDO_0bEj_C-68" value="&lt;strong style=&quot;text-align: left;&quot;&gt;&lt;font style=&quot;font-size: 20px;&quot;&gt;Scalability&lt;/font&gt;&lt;/strong&gt;" style="shape=partialRectangle;html=1;whiteSpace=wrap;connectable=0;strokeColor=inherit;overflow=hidden;fillColor=none;top=0;left=0;bottom=0;right=0;pointerEvents=1;fontStyle=0;fontSize=17;rounded=1;sketch=1;curveFitting=1;jiggle=2;labelBackgroundColor=default;" vertex="1" parent="jeh_nIhjsLaDO_0bEj_C-67">
          <mxGeometry width="204" height="106" as="geometry">
            <mxRectangle width="204" height="106" as="alternateBounds" />
          </mxGeometry>
        </mxCell>
        <mxCell id="jeh_nIhjsLaDO_0bEj_C-69" value="&lt;div style=&quot;font-size: 17px;&quot;&gt;&lt;br style=&quot;font-size: 17px;&quot;&gt;&lt;/div&gt;&lt;div style=&quot;font-size: 17px;&quot;&gt;&lt;table style=&quot;text-align: left; font-size: 17px;&quot;&gt;&lt;tbody style=&quot;font-size: 17px;&quot;&gt;&lt;tr style=&quot;font-size: 17px;&quot;&gt;&lt;td style=&quot;font-size: 17px;&quot;&gt;&lt;font style=&quot;font-size: 17px;&quot;&gt;High&lt;/font&gt;&lt;/td&gt;&lt;/tr&gt;&lt;/tbody&gt;&lt;/table&gt;&lt;/div&gt;" style="shape=partialRectangle;html=1;whiteSpace=wrap;connectable=0;strokeColor=inherit;overflow=hidden;fillColor=none;top=0;left=0;bottom=0;right=0;pointerEvents=1;fontStyle=0;fontSize=17;rounded=1;sketch=1;curveFitting=1;jiggle=2;labelBackgroundColor=default;" vertex="1" parent="jeh_nIhjsLaDO_0bEj_C-67">
          <mxGeometry x="204" width="202" height="106" as="geometry">
            <mxRectangle width="202" height="106" as="alternateBounds" />
          </mxGeometry>
        </mxCell>
        <mxCell id="jeh_nIhjsLaDO_0bEj_C-70" value="&lt;span style=&quot;font-size: 17px; text-align: left;&quot;&gt;Moderate&lt;/span&gt;" style="shape=partialRectangle;html=1;whiteSpace=wrap;connectable=0;strokeColor=inherit;overflow=hidden;fillColor=none;top=0;left=0;bottom=0;right=0;pointerEvents=1;fontStyle=0;fontSize=17;rounded=1;sketch=1;curveFitting=1;jiggle=2;labelBackgroundColor=default;" vertex="1" parent="jeh_nIhjsLaDO_0bEj_C-67">
          <mxGeometry x="406" width="204" height="106" as="geometry">
            <mxRectangle width="204" height="106" as="alternateBounds" />
          </mxGeometry>
        </mxCell>
        <mxCell id="jeh_nIhjsLaDO_0bEj_C-71" value="&lt;span style=&quot;font-size: 17px; text-align: left;&quot;&gt;Depends on setup&lt;/span&gt;" style="shape=partialRectangle;html=1;whiteSpace=wrap;connectable=0;strokeColor=inherit;overflow=hidden;fillColor=none;top=0;left=0;bottom=0;right=0;pointerEvents=1;fontStyle=0;fontSize=17;rounded=1;sketch=1;curveFitting=1;jiggle=2;labelBackgroundColor=default;" vertex="1" parent="jeh_nIhjsLaDO_0bEj_C-67">
          <mxGeometry x="610" width="204" height="106" as="geometry">
            <mxRectangle width="204" height="106" as="alternateBounds" />
          </mxGeometry>
        </mxCell>
        <mxCell id="jeh_nIhjsLaDO_0bEj_C-72" value="&lt;span style=&quot;font-size: 17px; text-align: left;&quot;&gt;High&lt;/span&gt;" style="shape=partialRectangle;html=1;whiteSpace=wrap;connectable=0;strokeColor=inherit;overflow=hidden;fillColor=none;top=0;left=0;bottom=0;right=0;pointerEvents=1;fontStyle=0;fontSize=17;rounded=1;sketch=1;curveFitting=1;jiggle=2;labelBackgroundColor=default;" vertex="1" parent="jeh_nIhjsLaDO_0bEj_C-67">
          <mxGeometry x="814" width="202" height="106" as="geometry">
            <mxRectangle width="202" height="106" as="alternateBounds" />
          </mxGeometry>
        </mxCell>
        <mxCell id="jeh_nIhjsLaDO_0bEj_C-73" value="&lt;span style=&quot;font-size: 17px; text-align: left;&quot;&gt;Moderate-High&lt;/span&gt;" style="shape=partialRectangle;html=1;whiteSpace=wrap;connectable=0;strokeColor=inherit;overflow=hidden;fillColor=none;top=0;left=0;bottom=0;right=0;pointerEvents=1;fontStyle=0;fontSize=17;rounded=1;sketch=1;curveFitting=1;jiggle=2;labelBackgroundColor=default;" vertex="1" parent="jeh_nIhjsLaDO_0bEj_C-67">
          <mxGeometry x="1016" width="204" height="106" as="geometry">
            <mxRectangle width="204" height="106" as="alternateBounds" />
          </mxGeometry>
        </mxCell>
        <mxCell id="jeh_nIhjsLaDO_0bEj_C-74" value="" style="shape=tableRow;horizontal=0;startSize=0;swimlaneHead=0;swimlaneBody=0;strokeColor=inherit;top=0;left=0;bottom=0;right=0;collapsible=0;dropTarget=0;fillColor=none;points=[[0,0.5],[1,0.5]];portConstraint=eastwest;fontStyle=0;fontSize=17;rounded=1;sketch=1;curveFitting=1;jiggle=2;labelBackgroundColor=default;" vertex="1" parent="jeh_nIhjsLaDO_0bEj_C-45">
          <mxGeometry y="438" width="1220" height="113" as="geometry" />
        </mxCell>
        <mxCell id="jeh_nIhjsLaDO_0bEj_C-75" value="&lt;strong style=&quot;text-align: left;&quot;&gt;&lt;font style=&quot;font-size: 20px;&quot;&gt;Monitoring&lt;/font&gt;&lt;/strong&gt;" style="shape=partialRectangle;html=1;whiteSpace=wrap;connectable=0;strokeColor=inherit;overflow=hidden;fillColor=none;top=0;left=0;bottom=0;right=0;pointerEvents=1;fontStyle=0;fontSize=17;rounded=1;sketch=1;curveFitting=1;jiggle=2;labelBackgroundColor=default;" vertex="1" parent="jeh_nIhjsLaDO_0bEj_C-74">
          <mxGeometry width="204" height="113" as="geometry">
            <mxRectangle width="204" height="113" as="alternateBounds" />
          </mxGeometry>
        </mxCell>
        <mxCell id="jeh_nIhjsLaDO_0bEj_C-76" value="&lt;span style=&quot;font-size: 17px; text-align: left;&quot;&gt;Built-in&lt;/span&gt;" style="shape=partialRectangle;html=1;whiteSpace=wrap;connectable=0;strokeColor=inherit;overflow=hidden;fillColor=none;top=0;left=0;bottom=0;right=0;pointerEvents=1;fontStyle=0;fontSize=17;rounded=1;sketch=1;curveFitting=1;jiggle=2;labelBackgroundColor=default;" vertex="1" parent="jeh_nIhjsLaDO_0bEj_C-74">
          <mxGeometry x="204" width="202" height="113" as="geometry">
            <mxRectangle width="202" height="113" as="alternateBounds" />
          </mxGeometry>
        </mxCell>
        <mxCell id="jeh_nIhjsLaDO_0bEj_C-77" value="&lt;span style=&quot;font-size: 17px; text-align: left;&quot;&gt;Limited&lt;/span&gt;" style="shape=partialRectangle;html=1;whiteSpace=wrap;connectable=0;strokeColor=inherit;overflow=hidden;fillColor=none;top=0;left=0;bottom=0;right=0;pointerEvents=1;fontStyle=0;fontSize=17;rounded=1;sketch=1;curveFitting=1;jiggle=2;labelBackgroundColor=default;" vertex="1" parent="jeh_nIhjsLaDO_0bEj_C-74">
          <mxGeometry x="406" width="204" height="113" as="geometry">
            <mxRectangle width="204" height="113" as="alternateBounds" />
          </mxGeometry>
        </mxCell>
        <mxCell id="jeh_nIhjsLaDO_0bEj_C-78" value="&lt;span style=&quot;font-size: 17px; text-align: left;&quot;&gt;Needs custom setup&lt;/span&gt;" style="shape=partialRectangle;html=1;whiteSpace=wrap;connectable=0;strokeColor=inherit;overflow=hidden;fillColor=none;top=0;left=0;bottom=0;right=0;pointerEvents=1;fontStyle=0;fontSize=17;rounded=1;sketch=1;curveFitting=1;jiggle=2;labelBackgroundColor=default;" vertex="1" parent="jeh_nIhjsLaDO_0bEj_C-74">
          <mxGeometry x="610" width="204" height="113" as="geometry">
            <mxRectangle width="204" height="113" as="alternateBounds" />
          </mxGeometry>
        </mxCell>
        <mxCell id="jeh_nIhjsLaDO_0bEj_C-79" value="&lt;span style=&quot;font-size: 17px; text-align: left;&quot;&gt;Built-in&lt;/span&gt;" style="shape=partialRectangle;html=1;whiteSpace=wrap;connectable=0;strokeColor=inherit;overflow=hidden;fillColor=none;top=0;left=0;bottom=0;right=0;pointerEvents=1;fontStyle=0;fontSize=17;rounded=1;sketch=1;curveFitting=1;jiggle=2;labelBackgroundColor=default;" vertex="1" parent="jeh_nIhjsLaDO_0bEj_C-74">
          <mxGeometry x="814" width="202" height="113" as="geometry">
            <mxRectangle width="202" height="113" as="alternateBounds" />
          </mxGeometry>
        </mxCell>
        <mxCell id="jeh_nIhjsLaDO_0bEj_C-80" value="&lt;span style=&quot;font-size: 17px; text-align: left;&quot;&gt;Needs custom setup&lt;/span&gt;" style="shape=partialRectangle;html=1;whiteSpace=wrap;connectable=0;strokeColor=inherit;overflow=hidden;fillColor=none;top=0;left=0;bottom=0;right=0;pointerEvents=1;fontStyle=0;fontSize=17;rounded=1;sketch=1;curveFitting=1;jiggle=2;labelBackgroundColor=default;" vertex="1" parent="jeh_nIhjsLaDO_0bEj_C-74">
          <mxGeometry x="1016" width="204" height="113" as="geometry">
            <mxRectangle width="204" height="113" as="alternateBounds" />
          </mxGeometry>
        </mxCell>
        <mxCell id="jeh_nIhjsLaDO_0bEj_C-81" value="" style="shape=tableRow;horizontal=0;startSize=0;swimlaneHead=0;swimlaneBody=0;strokeColor=inherit;top=0;left=0;bottom=0;right=0;collapsible=0;dropTarget=0;fillColor=none;points=[[0,0.5],[1,0.5]];portConstraint=eastwest;fontStyle=0;fontSize=17;rounded=1;sketch=1;curveFitting=1;jiggle=2;labelBackgroundColor=default;" vertex="1" parent="jeh_nIhjsLaDO_0bEj_C-45">
          <mxGeometry y="551" width="1220" height="108" as="geometry" />
        </mxCell>
        <mxCell id="jeh_nIhjsLaDO_0bEj_C-82" value="&lt;strong style=&quot;text-align: left;&quot;&gt;&lt;font style=&quot;font-size: 20px;&quot;&gt;Integration with Azure&lt;/font&gt;&lt;/strong&gt;" style="shape=partialRectangle;html=1;whiteSpace=wrap;connectable=0;strokeColor=inherit;overflow=hidden;fillColor=none;top=0;left=0;bottom=0;right=0;pointerEvents=1;fontStyle=0;fontSize=17;rounded=1;sketch=1;curveFitting=1;jiggle=2;labelBackgroundColor=default;" vertex="1" parent="jeh_nIhjsLaDO_0bEj_C-81">
          <mxGeometry width="204" height="108" as="geometry">
            <mxRectangle width="204" height="108" as="alternateBounds" />
          </mxGeometry>
        </mxCell>
        <mxCell id="jeh_nIhjsLaDO_0bEj_C-83" value="&lt;span style=&quot;font-size: 17px; text-align: left;&quot;&gt;Excellent&lt;/span&gt;" style="shape=partialRectangle;html=1;whiteSpace=wrap;connectable=0;strokeColor=inherit;overflow=hidden;fillColor=none;top=0;left=0;bottom=0;right=0;pointerEvents=1;fontStyle=0;fontSize=17;rounded=1;sketch=1;curveFitting=1;jiggle=2;labelBackgroundColor=default;" vertex="1" parent="jeh_nIhjsLaDO_0bEj_C-81">
          <mxGeometry x="204" width="202" height="108" as="geometry">
            <mxRectangle width="202" height="108" as="alternateBounds" />
          </mxGeometry>
        </mxCell>
        <mxCell id="jeh_nIhjsLaDO_0bEj_C-84" value="&lt;span style=&quot;font-size: 17px; text-align: left;&quot;&gt;Good&lt;/span&gt;" style="shape=partialRectangle;html=1;whiteSpace=wrap;connectable=0;strokeColor=inherit;overflow=hidden;fillColor=none;top=0;left=0;bottom=0;right=0;pointerEvents=1;fontStyle=0;fontSize=17;rounded=1;sketch=1;curveFitting=1;jiggle=2;labelBackgroundColor=default;" vertex="1" parent="jeh_nIhjsLaDO_0bEj_C-81">
          <mxGeometry x="406" width="204" height="108" as="geometry">
            <mxRectangle width="204" height="108" as="alternateBounds" />
          </mxGeometry>
        </mxCell>
        <mxCell id="jeh_nIhjsLaDO_0bEj_C-85" value="&lt;span style=&quot;font-size: 17px; text-align: left;&quot;&gt;Requires libraries&lt;/span&gt;" style="shape=partialRectangle;html=1;whiteSpace=wrap;connectable=0;strokeColor=inherit;overflow=hidden;fillColor=none;top=0;left=0;bottom=0;right=0;pointerEvents=1;fontStyle=0;fontSize=17;rounded=1;sketch=1;curveFitting=1;jiggle=2;labelBackgroundColor=default;" vertex="1" parent="jeh_nIhjsLaDO_0bEj_C-81">
          <mxGeometry x="610" width="204" height="108" as="geometry">
            <mxRectangle width="204" height="108" as="alternateBounds" />
          </mxGeometry>
        </mxCell>
        <mxCell id="jeh_nIhjsLaDO_0bEj_C-86" value="&lt;span style=&quot;font-size: 17px; text-align: left;&quot;&gt;Good&lt;/span&gt;" style="shape=partialRectangle;html=1;whiteSpace=wrap;connectable=0;strokeColor=inherit;overflow=hidden;fillColor=none;top=0;left=0;bottom=0;right=0;pointerEvents=1;fontStyle=0;fontSize=17;rounded=1;sketch=1;curveFitting=1;jiggle=2;labelBackgroundColor=default;" vertex="1" parent="jeh_nIhjsLaDO_0bEj_C-81">
          <mxGeometry x="814" width="202" height="108" as="geometry">
            <mxRectangle width="202" height="108" as="alternateBounds" />
          </mxGeometry>
        </mxCell>
        <mxCell id="jeh_nIhjsLaDO_0bEj_C-87" value="&lt;table style=&quot;text-align: left; font-size: 17px;&quot;&gt;&lt;tbody style=&quot;font-size: 17px;&quot;&gt;&lt;tr style=&quot;font-size: 17px;&quot;&gt;&lt;/tr&gt;&lt;tr style=&quot;font-size: 17px;&quot;&gt;&lt;td style=&quot;font-size: 17px;&quot;&gt;&lt;font style=&quot;font-size: 17px;&quot;&gt;&lt;br style=&quot;font-size: 17px;&quot; class=&quot;Apple-interchange-newline&quot;&gt;Excellent (full control)&lt;/font&gt;&lt;/td&gt;&lt;/tr&gt;&lt;tr style=&quot;font-size: 17px;&quot;&gt;&lt;td style=&quot;font-size: 17px;&quot;&gt;&lt;br style=&quot;font-size: 17px;&quot;&gt;&lt;/td&gt;&lt;td style=&quot;font-size: 17px;&quot;&gt;&lt;/td&gt;&lt;td style=&quot;font-size: 17px;&quot;&gt;&lt;br style=&quot;font-size: 17px;&quot;&gt;&lt;/td&gt;&lt;td style=&quot;font-size: 17px;&quot;&gt;&lt;/td&gt;&lt;/tr&gt;&lt;/tbody&gt;&lt;/table&gt;" style="shape=partialRectangle;html=1;whiteSpace=wrap;connectable=0;strokeColor=inherit;overflow=hidden;fillColor=none;top=0;left=0;bottom=0;right=0;pointerEvents=1;fontStyle=0;fontSize=17;rounded=1;sketch=1;curveFitting=1;jiggle=2;labelBackgroundColor=default;" vertex="1" parent="jeh_nIhjsLaDO_0bEj_C-81">
          <mxGeometry x="1016" width="204" height="108" as="geometry">
            <mxRectangle width="204" height="108" as="alternateBounds" />
          </mxGeometry>
        </mxCell>
        <mxCell id="jeh_nIhjsLaDO_0bEj_C-88" value="" style="shape=tableRow;horizontal=0;startSize=0;swimlaneHead=0;swimlaneBody=0;strokeColor=inherit;top=0;left=0;bottom=0;right=0;collapsible=0;dropTarget=0;fillColor=none;points=[[0,0.5],[1,0.5]];portConstraint=eastwest;rounded=1;sketch=1;curveFitting=1;jiggle=2;labelBackgroundColor=default;" vertex="1" parent="jeh_nIhjsLaDO_0bEj_C-45">
          <mxGeometry y="659" width="1220" height="111" as="geometry" />
        </mxCell>
        <mxCell id="jeh_nIhjsLaDO_0bEj_C-89" value="&lt;font size=&quot;1&quot; style=&quot;&quot;&gt;&lt;b style=&quot;font-size: 20px;&quot;&gt;Best Use Case&lt;/b&gt;&lt;/font&gt;" style="shape=partialRectangle;html=1;whiteSpace=wrap;connectable=0;strokeColor=inherit;overflow=hidden;fillColor=none;top=0;left=0;bottom=0;right=0;pointerEvents=1;rounded=1;sketch=1;curveFitting=1;jiggle=2;labelBackgroundColor=default;" vertex="1" parent="jeh_nIhjsLaDO_0bEj_C-88">
          <mxGeometry width="204" height="111" as="geometry">
            <mxRectangle width="204" height="111" as="alternateBounds" />
          </mxGeometry>
        </mxCell>
        <mxCell id="jeh_nIhjsLaDO_0bEj_C-90" value="&lt;span style=&quot;font-size: medium; text-align: left;&quot;&gt;Cloud-native ETL&lt;/span&gt;" style="shape=partialRectangle;html=1;whiteSpace=wrap;connectable=0;strokeColor=inherit;overflow=hidden;fillColor=none;top=0;left=0;bottom=0;right=0;pointerEvents=1;rounded=1;sketch=1;curveFitting=1;jiggle=2;labelBackgroundColor=default;" vertex="1" parent="jeh_nIhjsLaDO_0bEj_C-88">
          <mxGeometry x="204" width="202" height="111" as="geometry">
            <mxRectangle width="202" height="111" as="alternateBounds" />
          </mxGeometry>
        </mxCell>
        <mxCell id="jeh_nIhjsLaDO_0bEj_C-91" value="&lt;span style=&quot;font-size: medium; text-align: left;&quot;&gt;Existing SSIS users&lt;/span&gt;" style="shape=partialRectangle;html=1;whiteSpace=wrap;connectable=0;strokeColor=inherit;overflow=hidden;fillColor=none;top=0;left=0;bottom=0;right=0;pointerEvents=1;rounded=1;sketch=1;curveFitting=1;jiggle=2;labelBackgroundColor=default;" vertex="1" parent="jeh_nIhjsLaDO_0bEj_C-88">
          <mxGeometry x="406" width="204" height="111" as="geometry">
            <mxRectangle width="204" height="111" as="alternateBounds" />
          </mxGeometry>
        </mxCell>
        <mxCell id="jeh_nIhjsLaDO_0bEj_C-92" value="&lt;br&gt;&lt;table style=&quot;forced-color-adjust: none; color: rgb(0, 0, 0); font-family: Helvetica; font-size: 12px; font-style: normal; font-variant-ligatures: normal; font-variant-caps: normal; font-weight: 400; letter-spacing: normal; orphans: 2; text-transform: none; widows: 2; word-spacing: 0px; -webkit-text-stroke-width: 0px; white-space: normal; text-decoration-thickness: initial; text-decoration-style: initial; text-decoration-color: initial; text-align: left;&quot;&gt;&lt;tbody style=&quot;forced-color-adjust: none;&quot;&gt;&lt;tr style=&quot;forced-color-adjust: none;&quot;&gt;&lt;td style=&quot;forced-color-adjust: none;&quot;&gt;&lt;span style=&quot;font-size: medium;&quot;&gt;Small-&amp;nbsp; scale/custom&lt;/span&gt;&lt;/td&gt;&lt;/tr&gt;&lt;/tbody&gt;&lt;/table&gt;&lt;div&gt;&lt;br&gt;&lt;/div&gt;" style="shape=partialRectangle;html=1;whiteSpace=wrap;connectable=0;strokeColor=inherit;overflow=hidden;fillColor=none;top=0;left=0;bottom=0;right=0;pointerEvents=1;rounded=1;sketch=1;curveFitting=1;jiggle=2;labelBackgroundColor=default;" vertex="1" parent="jeh_nIhjsLaDO_0bEj_C-88">
          <mxGeometry x="610" width="204" height="111" as="geometry">
            <mxRectangle width="204" height="111" as="alternateBounds" />
          </mxGeometry>
        </mxCell>
        <mxCell id="jeh_nIhjsLaDO_0bEj_C-93" value="&lt;span style=&quot;font-size: medium; text-align: left;&quot;&gt;Complex workflows&lt;/span&gt;" style="shape=partialRectangle;html=1;whiteSpace=wrap;connectable=0;strokeColor=inherit;overflow=hidden;fillColor=none;top=0;left=0;bottom=0;right=0;pointerEvents=1;rounded=1;sketch=1;curveFitting=1;jiggle=2;labelBackgroundColor=default;" vertex="1" parent="jeh_nIhjsLaDO_0bEj_C-88">
          <mxGeometry x="814" width="202" height="111" as="geometry">
            <mxRectangle width="202" height="111" as="alternateBounds" />
          </mxGeometry>
        </mxCell>
        <mxCell id="jeh_nIhjsLaDO_0bEj_C-94" value="&lt;span style=&quot;font-size: medium; text-align: left;&quot;&gt;Custom ETL needs&lt;/span&gt;" style="shape=partialRectangle;html=1;whiteSpace=wrap;connectable=0;strokeColor=inherit;overflow=hidden;fillColor=none;top=0;left=0;bottom=0;right=0;pointerEvents=1;rounded=1;sketch=1;curveFitting=1;jiggle=2;labelBackgroundColor=default;" vertex="1" parent="jeh_nIhjsLaDO_0bEj_C-88">
          <mxGeometry x="1016" width="204" height="111" as="geometry">
            <mxRectangle width="204" height="111" as="alternateBounds" />
          </mxGeometry>
        </mxCell>
      </root>
    </mxGraphModel>
  </diagram>
</mxfile>
